# NOVA3D generated character
v 0.00000 1.00000 0.00000
v -0.70000 0.00000 -0.70000
v 0.70000 0.00000 -0.70000
v 0.00000 1.00000 0.00000
v 0.70000 0.00000 -0.70000
v 0.70000 0.00000 0.70000
v 0.00000 1.00000 0.00000
v 0.70000 0.00000 0.70000
v -0.70000 0.00000 0.70000
v 0.00000 1.00000 0.00000
v -0.70000 0.00000 0.70000
v -0.70000 0.00000 -0.70000
v -0.70000 0.00000 -0.70000
v 0.70000 0.00000 -0.70000
v 0.70000 0.00000 0.70000
v -0.70000 0.00000 -0.70000
v 0.70000 0.00000 0.70000
v -0.70000 0.00000 0.70000
vt 0.31250 0.87500
vt 0.25000 1.00000
vt 0.37500 1.00000
vt 0.31250 0.87500
vt 0.25000 1.00000
vt 0.37500 1.00000
vt 0.31250 0.87500
vt 0.25000 1.00000
vt 0.37500 1.00000
vt 0.31250 0.87500
vt 0.25000 1.00000
vt 0.37500 1.00000
vt 0.25000 1.00000
vt 0.37500 1.00000
vt 0.31250 0.87500
vt 0.25000 1.00000
vt 0.31250 0.87500
vt 0.25000 1.00000
f 1/1 2/2 3/3
f 4/4 5/5 6/6
f 7/7 8/8 9/9
f 10/10 11/11 12/12
f 13/13 14/14 15/15
f 16/16 17/17 18/18
